<svg width="16" height="15" viewBox="0 0 16 15" fill="none" xmlns="http://www.w3.org/2000/svg">
<path d="M7.61316 9.1212V8.78119H7.79715C7.98121 8.78119 8.15775 8.70808 8.2879 8.57793C8.41805 8.44778 8.49115 8.27125 8.49115 8.08719C8.49115 7.90313 8.41805 7.72662 8.2879 7.59647C8.15775 7.46632 7.98121 7.39319 7.79715 7.39319H7.61316V6.90819H8.26517V6.4572H7.61316V6.11719H7.16217V6.4572H6.97815C6.88486 6.45366 6.79182 6.46897 6.70459 6.50223C6.61736 6.53548 6.53774 6.58599 6.47049 6.65074C6.40324 6.71549 6.34974 6.79314 6.3132 6.87904C6.27666 6.96495 6.25781 7.05734 6.25781 7.1507C6.25781 7.24405 6.27666 7.33644 6.3132 7.42235C6.34974 7.50825 6.40324 7.5859 6.47049 7.65065C6.53774 7.7154 6.61736 7.76591 6.70459 7.79916C6.79182 7.83242 6.88486 7.84774 6.97815 7.84419H7.16217V8.32919H6.51016V8.7802H7.16217V9.12019L7.61316 9.1212ZM6.97815 7.39319C6.94499 7.39532 6.91176 7.39063 6.88049 7.37941C6.84922 7.36819 6.82059 7.35067 6.79636 7.32794C6.77212 7.30521 6.7528 7.27776 6.73959 7.24727C6.72639 7.21678 6.71957 7.18392 6.71957 7.1507C6.71957 7.11747 6.72639 7.08459 6.73959 7.05411C6.7528 7.02362 6.77212 6.99618 6.79636 6.97345C6.82059 6.95072 6.84922 6.9332 6.88049 6.92198C6.91176 6.91076 6.94499 6.90606 6.97815 6.90819H7.16217V7.39319H6.97815ZM7.61316 7.84419H7.79715C7.8303 7.84206 7.86357 7.84675 7.89484 7.85797C7.92611 7.86919 7.95474 7.88671 7.97897 7.90944C8.00321 7.93217 8.02253 7.95963 8.03574 7.99011C8.04894 8.0206 8.05573 8.05348 8.05573 8.0867C8.05573 8.11992 8.04894 8.15279 8.03574 8.18327C8.02253 8.21376 8.00321 8.24122 7.97897 8.26395C7.95474 8.28667 7.92611 8.30419 7.89484 8.31541C7.86357 8.32664 7.8303 8.33132 7.79715 8.32919H7.61316V7.84419Z" fill="black"/>
<path d="M9.73908 7.62345C9.73908 7.15866 9.60124 6.7043 9.34302 6.31785C9.0848 5.93139 8.71777 5.63019 8.28837 5.45232C7.85896 5.27446 7.38646 5.22792 6.93061 5.31859C6.47475 5.40927 6.05601 5.63308 5.72736 5.96174C5.39871 6.29039 5.17489 6.70913 5.08422 7.16498C4.99354 7.62084 5.04008 8.09335 5.21795 8.52276C5.39581 8.95216 5.69702 9.31918 6.08347 9.5774C6.46993 9.83562 6.92429 9.97344 7.38907 9.97344C8.01209 9.97265 8.60936 9.7248 9.0499 9.28426C9.49044 8.84372 9.73829 8.24646 9.73908 7.62345ZM5.49007 7.62345C5.49007 7.24766 5.6015 6.88031 5.81028 6.56786C6.01905 6.25541 6.31579 6.01188 6.66297 5.86808C7.01015 5.72427 7.39218 5.68664 7.76075 5.75995C8.12931 5.83327 8.46784 6.01422 8.73356 6.27994C8.99928 6.54566 9.18023 6.8842 9.25355 7.25277C9.32686 7.62133 9.28926 8.00337 9.14545 8.35055C9.00165 8.69772 8.75811 8.99446 8.44565 9.20324C8.1332 9.41201 7.76587 9.52344 7.39008 9.52344C6.88704 9.52212 6.40503 9.32136 6.04979 8.96518C5.69456 8.60901 5.49506 8.12649 5.49506 7.62345H5.49007Z" fill="black"/>
<path d="M3.155 12.2025C3.41189 12.019 3.60387 11.7587 3.70325 11.459C3.80262 11.1594 3.80427 10.836 3.70793 10.5353C3.6116 10.2347 3.42227 9.97242 3.16724 9.78635C2.91222 9.60027 2.60469 9.5 2.289 9.5C1.97331 9.5 1.66578 9.60027 1.41076 9.78635C1.15574 9.97242 0.966407 10.2347 0.870071 10.5353C0.773736 10.836 0.775371 11.1594 0.874748 11.459C0.974125 11.7587 1.1661 12.019 1.423 12.2025C1.00252 12.3749 0.642766 12.6684 0.389404 13.0457C0.136043 13.423 0.000504324 13.867 0 14.3215V15.0105H4.58V14.3215C4.57942 13.8669 4.44373 13.4228 4.19019 13.0455C3.93664 12.6682 3.57566 12.3748 3.155 12.2025ZM1.255 10.9935C1.255 10.7882 1.31587 10.5875 1.42993 10.4168C1.54399 10.2461 1.70611 10.1131 1.89577 10.0345C2.08544 9.95595 2.29415 9.93541 2.49551 9.97546C2.69686 10.0155 2.88181 10.1144 3.02698 10.2595C3.17214 10.4047 3.27101 10.5897 3.31106 10.791C3.35111 10.9924 3.33055 11.2011 3.25198 11.3907C3.17342 11.5804 3.04038 11.7425 2.86968 11.8566C2.69898 11.9706 2.4983 12.0315 2.293 12.0315C2.15639 12.0319 2.02104 12.0053 1.8947 11.9534C1.76836 11.9014 1.65352 11.825 1.55673 11.7286C1.45995 11.6322 1.38313 11.5176 1.33067 11.3915C1.2782 11.2654 1.25113 11.1301 1.251 10.9935H1.255ZM4.132 14.5595H0.449997V14.3215C0.444282 14.0765 0.487614 13.8328 0.577438 13.6047C0.667263 13.3766 0.801774 13.1688 0.973061 12.9935C1.14435 12.8182 1.34895 12.6789 1.57485 12.5837C1.80075 12.4886 2.04339 12.4396 2.2885 12.4396C2.53361 12.4396 2.77625 12.4886 3.00215 12.5837C3.22805 12.6789 3.43266 12.8182 3.60394 12.9935C3.77523 13.1688 3.90974 13.3766 3.99957 13.6047C4.08939 13.8328 4.13271 14.0765 4.127 14.3215V14.5595H4.132Z" fill="black"/>
<path d="M13.6248 2.70249C13.8816 2.51901 14.0736 2.25868 14.173 1.95904C14.2724 1.6594 14.274 1.33594 14.1777 1.03531C14.0813 0.734681 13.892 0.472416 13.637 0.286342C13.382 0.100267 13.0744 0 12.7587 0C12.443 0 12.1355 0.100267 11.8805 0.286342C11.6255 0.472416 11.4361 0.734681 11.3398 1.03531C11.2435 1.33594 11.2451 1.6594 11.3445 1.95904C11.4439 2.25868 11.6358 2.51901 11.8927 2.70249C11.4721 2.87477 11.1121 3.16819 10.8586 3.54548C10.605 3.92278 10.4693 4.36692 10.4688 4.8215V5.51049H15.0477V4.8215C15.0473 4.36689 14.9116 3.92269 14.6581 3.54537C14.4045 3.16805 14.0445 2.87466 13.6237 2.70249H13.6248ZM11.7247 1.49249C11.7247 1.2872 11.7856 1.08651 11.8997 0.915813C12.0137 0.745115 12.1758 0.612072 12.3655 0.533508C12.5552 0.454944 12.7639 0.434388 12.9652 0.47444C13.1666 0.514491 13.3516 0.613351 13.4967 0.758518C13.6419 0.903685 13.7407 1.08864 13.7808 1.28999C13.8208 1.49134 13.8003 1.70005 13.7217 1.88972C13.6432 2.07939 13.5101 2.2415 13.3394 2.35556C13.1687 2.46962 12.9681 2.53049 12.7628 2.53049C12.6262 2.53089 12.4909 2.50438 12.3645 2.45248C12.2382 2.40058 12.1233 2.3243 12.0265 2.22801C11.9296 2.13171 11.8527 2.01729 11.8 1.89126C11.7474 1.76523 11.7202 1.63007 11.7198 1.49349L11.7247 1.49249ZM14.5927 5.05949H10.9157V4.8215C10.9157 4.33389 11.1094 3.86626 11.4542 3.52148C11.799 3.17669 12.2666 2.983 12.7542 2.983C13.2418 2.983 13.7095 3.17669 14.0543 3.52148C14.399 3.86626 14.5927 4.33389 14.5927 4.8215V5.05949Z" fill="black"/>
<path d="M4.48256 3.42569L4.22656 3.05469C4.05267 3.17442 3.88573 3.30397 3.72656 3.44269L4.02655 3.78269C4.17313 3.65524 4.32671 3.53605 4.48656 3.42569H4.48256Z" fill="black"/>
<path d="M3.46681 4.2435L3.13483 3.9375C2.25509 4.8786 1.76325 6.11726 1.75781 7.4055H2.20882C2.21412 6.23041 2.66308 5.10069 3.46582 4.24251L3.46681 4.2435Z" fill="black"/>
<path d="M6.32338 3.23925L6.65538 3.54525L7.99937 2.08625L6.34538 0.90625L6.08337 1.27325L7.00938 1.93325C6.16077 2.02243 5.34177 2.29543 4.60938 2.73325L4.84238 3.12025C5.53751 2.70577 6.3165 2.45191 7.12238 2.37725L6.32338 3.23925Z" fill="black"/>
<path d="M7.91507 12.8572L8.71506 11.9902L8.38306 11.6842L7.03906 13.1432L8.69305 14.3232L8.95508 13.9562L8.03207 13.2972C9.36728 13.1881 10.6154 12.5907 11.5378 11.6192C12.4603 10.6477 12.9922 9.37031 13.0321 8.03125H12.5811C12.5403 9.27149 12.0398 10.4522 11.1769 11.344C10.314 12.2357 9.15031 12.7748 7.91208 12.8562L7.91507 12.8572Z" fill="black"/>
</svg>
