<svg width="24" height="24" viewBox="0 0 24 24" fill="none" xmlns="http://www.w3.org/2000/svg">
<path d="M12.3508 2.82713V2.22619C12.3508 2.03222 12.1936 1.875 11.9996 1.875C11.8057 1.875 11.6484 2.03222 11.6484 2.22619V2.82713C11.6484 3.02109 11.8057 3.17831 11.9996 3.17831C12.1936 3.17831 12.3508 3.02109 12.3508 2.82713Z" fill="white"/>
<path d="M11.6484 20.6871V21.2881C11.6484 21.482 11.8057 21.6392 11.9996 21.6392C12.1936 21.6392 12.3508 21.482 12.3508 21.2881V20.6871C12.3508 20.4932 12.1936 20.3359 11.9996 20.3359C11.8057 20.336 11.6484 20.4932 11.6484 20.6871Z" fill="white"/>
<path d="M8.94739 3.71252C8.98729 3.71252 9.02783 3.70568 9.06749 3.69124C9.24974 3.62487 9.34372 3.4234 9.27739 3.2411L9.07189 2.67645C9.00557 2.4942 8.80391 2.40026 8.6218 2.46659C8.43955 2.53292 8.34557 2.73443 8.41189 2.91673L8.61739 3.48138C8.66928 3.62402 8.80391 3.71252 8.94739 3.71252Z" fill="white"/>
<path d="M14.9343 19.8181C14.7521 19.8844 14.6581 20.086 14.7244 20.2683L14.9299 20.8329C14.9818 20.9755 15.1165 21.0641 15.2599 21.0641C15.2998 21.0641 15.3404 21.0572 15.38 21.0428C15.5623 20.9764 15.6563 20.775 15.5899 20.5927L15.3844 20.028C15.318 19.8457 15.1164 19.7519 14.9343 19.8181Z" fill="white"/>
<path d="M6.26103 5.26421C6.34068 5.26421 6.42078 5.23726 6.4866 5.18204C6.63519 5.0574 6.65455 4.83587 6.52986 4.68728L6.14361 4.22696C6.01897 4.07842 5.79744 4.05911 5.64889 4.1837C5.5003 4.30834 5.48094 4.52987 5.60563 4.67846L5.99188 5.13878C6.0613 5.22156 6.16082 5.26421 6.26103 5.26421Z" fill="white"/>
<path d="M17.5161 18.3244C17.3675 18.449 17.3481 18.6706 17.4728 18.8191L17.8591 19.2795C17.9285 19.3622 18.028 19.4049 18.1283 19.4049C18.2079 19.4049 18.288 19.3779 18.3538 19.3227C18.5024 19.1981 18.5218 18.9766 18.3971 18.828L18.0108 18.3676C17.8862 18.219 17.6646 18.1997 17.5161 18.3244Z" fill="white"/>
<path d="M4.44567 6.98822L3.92527 6.68775C3.75727 6.59076 3.54253 6.64828 3.44555 6.81628C3.34856 6.98423 3.40613 7.19901 3.57408 7.296L4.09449 7.59647C4.1498 7.62839 4.21017 7.64357 4.26975 7.64357C4.39111 7.64357 4.50914 7.58062 4.5742 7.46793C4.67119 7.29998 4.61363 7.0852 4.44567 6.98822Z" fill="white"/>
<path d="M20.43 16.2148L19.9096 15.9143C19.7416 15.8173 19.5269 15.8748 19.4299 16.0428C19.3329 16.2108 19.3905 16.4256 19.5585 16.5226L20.0789 16.823C20.1342 16.8549 20.1945 16.8701 20.2541 16.8701C20.3755 16.8701 20.4935 16.8072 20.5586 16.6945C20.6556 16.5265 20.598 16.3118 20.43 16.2148Z" fill="white"/>
<path d="M2.67784 9.75542C2.48692 9.72163 2.30472 9.84931 2.27101 10.0402C2.23736 10.2313 2.3649 10.4134 2.55587 10.4471L3.14767 10.5514C3.16829 10.5551 3.18878 10.5568 3.20907 10.5568C3.37628 10.5568 3.52445 10.4369 3.5545 10.2666C3.5882 10.0755 3.46061 9.89342 3.26964 9.85977L2.67784 9.75542Z" fill="white"/>
<path d="M21.3274 13.7546C21.348 13.7582 21.3685 13.76 21.3888 13.76C21.556 13.76 21.7041 13.6401 21.7342 13.4698C21.7678 13.2787 21.6403 13.0966 21.4493 13.0629L20.8575 12.9586C20.6666 12.9246 20.4844 13.0525 20.4507 13.2434C20.417 13.4344 20.5446 13.6166 20.7356 13.6502L21.3274 13.7546Z" fill="white"/>
<path d="M2.27102 13.4697C2.30107 13.6401 2.44924 13.76 2.61645 13.76C2.6367 13.76 2.65723 13.7582 2.67785 13.7546L3.26965 13.6502C3.46066 13.6166 3.58821 13.4345 3.55451 13.2434C3.52085 13.0524 3.33879 12.9247 3.14768 12.9586L2.55588 13.0629C2.36491 13.0966 2.23732 13.2787 2.27102 13.4697Z" fill="white"/>
<path d="M21.7342 10.0402C21.7005 9.84922 21.5184 9.72163 21.3274 9.75543L20.7356 9.85977C20.5446 9.89343 20.417 10.0755 20.4507 10.2666C20.4808 10.437 20.6289 10.5568 20.7961 10.5568C20.8164 10.5568 20.8369 10.5551 20.8575 10.5514L21.4493 10.4471C21.6404 10.4134 21.7679 10.2313 21.7342 10.0402Z" fill="white"/>
<path d="M3.75 16.8701C3.80958 16.8701 3.86995 16.8549 3.92527 16.823L4.44567 16.5225C4.61363 16.4255 4.67119 16.2108 4.5742 16.0428C4.47722 15.8749 4.26244 15.8173 4.09449 15.9143L3.57408 16.2147C3.40613 16.3117 3.34856 16.5265 3.44555 16.6945C3.51061 16.8072 3.62864 16.8701 3.75 16.8701Z" fill="white"/>
<path d="M20.0789 6.68773L19.5585 6.98819C19.3905 7.08518 19.3329 7.29996 19.4299 7.46791C19.495 7.5806 19.613 7.64355 19.7344 7.64355C19.794 7.64355 19.8543 7.62837 19.9096 7.59644L20.43 7.29598C20.598 7.19899 20.6556 6.98421 20.5586 6.81626C20.4616 6.64826 20.2468 6.59079 20.0789 6.68773Z" fill="white"/>
<path d="M5.99188 18.3677L5.60563 18.828C5.48094 18.9765 5.5003 19.1981 5.64889 19.3228C5.71471 19.378 5.79477 19.4049 5.87446 19.4049C5.97467 19.4049 6.07419 19.3623 6.14366 19.2795L6.52991 18.8192C6.6546 18.6706 6.63524 18.4491 6.48664 18.3244C6.338 18.1996 6.11652 18.2191 5.99188 18.3677Z" fill="white"/>
<path d="M17.7416 5.26427C17.8418 5.26427 17.9413 5.22162 18.0108 5.13883L18.397 4.67852C18.5217 4.52998 18.5024 4.3084 18.3538 4.18376C18.2052 4.05902 17.9837 4.07848 17.8591 4.22702L17.4728 4.68734C17.3481 4.83588 17.3675 5.05746 17.5161 5.1821C17.5818 5.23732 17.6619 5.26427 17.7416 5.26427Z" fill="white"/>
<path d="M8.61739 20.028L8.41189 20.5927C8.34557 20.7749 8.43955 20.9764 8.6218 21.0428C8.66146 21.0572 8.702 21.064 8.74189 21.064C8.88533 21.064 9.02 20.9755 9.07194 20.8329L9.27744 20.2682C9.34377 20.086 9.24978 19.8845 9.06753 19.8181C8.88528 19.7519 8.68372 19.8458 8.61739 20.028Z" fill="white"/>
<path d="M15.0543 3.7125C15.1978 3.7125 15.3325 3.62391 15.3844 3.48136L15.5899 2.9167C15.6562 2.73445 15.5622 2.53294 15.38 2.46656C15.1977 2.40028 14.9962 2.49422 14.9299 2.67642L14.7244 3.24108C14.6581 3.42333 14.7521 3.62484 14.9343 3.69122C14.9739 3.70566 15.0145 3.7125 15.0543 3.7125Z" fill="white"/>
<path d="M23.5153 10.1313C23.364 9.80937 23.2212 9.50529 23.1538 9.20876C23.0826 8.89554 23.0786 8.54979 23.0744 8.1837C23.068 7.63104 23.0614 7.05964 22.8139 6.54664C22.5617 6.02394 22.1149 5.66084 21.6828 5.3097C21.4026 5.08194 21.1379 4.86683 20.9431 4.62284C20.7464 4.37656 20.5943 4.06915 20.4332 3.7437C20.1871 3.24631 19.9326 2.7319 19.4823 2.37242C19.0343 2.01467 18.4774 1.88051 17.9388 1.75072C17.5845 1.6654 17.25 1.58478 16.9638 1.44673C16.6862 1.31281 16.4197 1.10431 16.1375 0.883576C15.6971 0.539045 15.2417 0.182795 14.6704 0.0528574C14.1218 -0.0717364 13.567 0.0482168 13.0305 0.164232C12.6687 0.242514 12.327 0.316389 12 0.316389C11.6729 0.316389 11.3312 0.242514 10.9695 0.164232C10.4329 0.0482168 9.87802 -0.0718301 9.32953 0.0528574C8.75817 0.182748 8.30278 0.538998 7.86239 0.883576C7.58025 1.10431 7.31377 1.31281 7.03608 1.44673C6.74991 1.58478 6.41531 1.6654 6.06108 1.75072C5.52248 1.88047 4.96556 2.01462 4.51753 2.37237C4.0673 2.7319 3.81277 3.24626 3.56662 3.74365C3.40556 4.06911 3.25345 4.37651 3.05677 4.62284C2.86195 4.86678 2.5973 5.08189 2.31708 5.30961C1.88498 5.6608 1.43817 6.02393 1.18603 6.54659C0.938531 7.05959 0.931922 7.63109 0.925547 8.1837C0.921328 8.54979 0.917344 8.89554 0.846141 9.20876C0.778734 9.50529 0.635859 9.80937 0.484641 10.1313C0.246422 10.6386 0 11.1631 0 11.7546C0 12.3461 0.246422 12.8706 0.484734 13.3779C0.635953 13.6998 0.778828 14.0039 0.846234 14.3004C0.917437 14.6136 0.921422 14.9594 0.925641 15.3254C0.932016 15.878 0.938625 16.4495 1.18613 16.9625C1.43827 17.4852 1.88508 17.8482 2.31717 18.1994C2.59739 18.4272 2.86209 18.6423 3.05672 18.886C3.0653 18.8968 3.07383 18.9077 3.08227 18.9187C3.20053 19.0725 3.42098 19.1012 3.57469 18.983C3.72844 18.8647 3.75722 18.6443 3.639 18.4905C3.62808 18.4764 3.61706 18.4623 3.60572 18.4481C3.36375 18.145 3.05686 17.8956 2.76009 17.6545C2.37061 17.338 2.00278 17.039 1.81866 16.6574C1.63908 16.2852 1.63369 15.8151 1.62792 15.3173C1.62347 14.9307 1.61883 14.5308 1.53108 14.1448C1.4468 13.7741 1.28086 13.4209 1.12036 13.0792C0.905344 12.6216 0.702281 12.1894 0.702281 11.7546C0.702281 11.3198 0.905344 10.8876 1.12036 10.43C1.28086 10.0883 1.4468 9.73512 1.53108 9.36439C1.61883 8.97837 1.62347 8.57848 1.62792 8.19186C1.63369 7.69414 1.63912 7.22403 1.8187 6.85175C2.00278 6.47014 2.3707 6.17122 2.76014 5.85467C3.05686 5.6135 3.3637 5.36417 3.60572 5.06108C3.84952 4.75578 4.02577 4.39962 4.1962 4.05514C4.41806 3.60678 4.62764 3.18331 4.95586 2.92123C5.28188 2.66094 5.74027 2.5505 6.22561 2.43355C6.60019 2.34331 6.98752 2.24998 7.34128 2.07931C7.68698 1.91253 7.99617 1.67065 8.29519 1.43675C8.69217 1.1262 9.06717 0.832857 9.48525 0.737795C9.88177 0.647607 10.338 0.746326 10.821 0.850764C11.2028 0.933404 11.5978 1.01881 11.9999 1.01881C12.402 1.01881 12.797 0.933404 13.1789 0.850764C13.6618 0.746326 14.118 0.647654 14.5146 0.737795C14.9326 0.832857 15.3076 1.1262 15.7047 1.43679C16.0037 1.6707 16.3129 1.91258 16.6586 2.07936C17.0123 2.25008 17.3997 2.3434 17.7742 2.43359C18.2595 2.5505 18.718 2.66094 19.044 2.92128C19.3723 3.18345 19.5818 3.60687 19.8037 4.05523C19.9741 4.39962 20.1503 4.75578 20.3941 5.06112C20.6361 5.36422 20.943 5.61359 21.2398 5.85481C21.6292 6.17131 21.9971 6.47028 22.1812 6.85189C22.3607 7.22408 22.3661 7.69419 22.3719 8.1919C22.3763 8.57862 22.381 8.97847 22.4687 9.36448C22.553 9.73517 22.719 10.0884 22.8795 10.43C23.0945 10.8877 23.2975 11.3199 23.2975 11.7547C23.2975 12.1894 23.0945 12.6216 22.8795 13.0793C22.719 13.4209 22.553 13.7742 22.4687 14.1449C22.381 14.5309 22.3764 14.9307 22.3719 15.3174C22.3661 15.8151 22.3607 16.2852 22.1811 16.6575C21.997 17.039 21.6292 17.338 21.2397 17.6546C20.943 17.8958 20.6361 18.1452 20.3941 18.4482C20.1503 18.7535 19.974 19.1097 19.8036 19.4541C19.5817 19.9025 19.3722 20.3259 19.044 20.588C18.7179 20.8483 18.2595 20.9588 17.7741 21.0757C17.3996 21.166 17.0123 21.2592 16.6585 21.4299C16.3128 21.5967 16.0037 21.8386 15.7047 22.0725C15.3077 22.3831 14.9327 22.6765 14.5146 22.7715C14.118 22.8616 13.6618 22.763 13.1788 22.6585C12.7969 22.5759 12.402 22.4905 11.9999 22.4905C11.5977 22.4905 11.2028 22.5759 10.8209 22.6585C10.338 22.763 9.88186 22.8617 9.48516 22.7715C9.06703 22.6765 8.69203 22.3831 8.29505 22.0725C7.99608 21.8386 7.68689 21.5967 7.34123 21.4299C6.98742 21.2592 6.60009 21.1659 6.22556 21.0757C5.74027 20.9588 5.28183 20.8483 4.95586 20.588C4.78303 20.45 4.62698 20.254 4.46475 19.971C4.36828 19.8027 4.15369 19.7446 3.98545 19.841C3.81717 19.9375 3.75895 20.1521 3.85547 20.3203C4.06308 20.6825 4.27345 20.942 4.51758 21.1369C4.96556 21.4946 5.52248 21.6287 6.06108 21.7585C6.41531 21.8438 6.74991 21.9245 7.03608 22.0625C7.31367 22.1964 7.58016 22.4049 7.8623 22.6257C8.30269 22.9702 8.75813 23.3265 9.32953 23.4564C9.87806 23.5811 10.4329 23.4611 10.9695 23.345C11.3312 23.2668 11.6729 23.1928 11.9999 23.1928C12.327 23.1928 12.6687 23.2667 13.0304 23.345C13.4056 23.4261 13.7897 23.5092 14.1744 23.5092C14.3398 23.5092 14.5054 23.4939 14.6703 23.4564C15.2417 23.3265 15.6971 22.9702 16.1375 22.6257C16.4197 22.4049 16.6861 22.1964 16.9637 22.0625C17.2499 21.9245 17.5844 21.8439 17.9386 21.7586C18.4772 21.6289 19.0342 21.4947 19.4822 21.1369C19.9325 20.7774 20.187 20.263 20.4331 19.7656C20.5942 19.4401 20.7463 19.1327 20.943 18.8864C21.1378 18.6425 21.4025 18.4273 21.6827 18.1996C22.1148 17.8484 22.5615 17.4853 22.8137 16.9627C23.0612 16.4497 23.0678 15.8782 23.0742 15.3256C23.0784 14.9595 23.0824 14.6137 23.1536 14.3006C23.221 14.004 23.3639 13.7 23.5151 13.378C23.7536 12.8706 24 12.3461 24 11.7546C24 11.1631 23.7536 10.6386 23.5153 10.1313Z" fill="white"/>
<path d="M11.9975 19.667C16.36 19.667 19.9092 16.1179 19.9092 11.7554C19.9092 11.0417 19.814 10.3341 19.6265 9.65231C19.5751 9.46528 19.3818 9.35555 19.1948 9.40688C19.0078 9.4583 18.8979 9.65161 18.9493 9.83864C19.1202 10.4597 19.2068 11.1046 19.2068 11.7554C19.2068 15.7305 15.9728 18.9646 11.9976 18.9646C8.02241 18.9646 4.78831 15.7305 4.78831 11.7554C4.78831 7.78017 8.02236 4.54613 11.9975 4.54613C14.678 4.54613 17.1218 6.01955 18.3755 8.39142C18.4662 8.56289 18.6786 8.62842 18.8502 8.53781C19.0216 8.4472 19.0872 8.23467 18.9965 8.0632C17.6208 5.46061 14.939 3.84375 11.9975 3.84375C7.63508 3.84375 4.08594 7.39284 4.08594 11.7554C4.08594 16.1179 7.63508 19.667 11.9975 19.667Z" fill="white"/>
<path d="M14.3328 6.73009C13.817 6.2777 13.0292 6.3294 12.5769 6.84512L11.462 8.11628L11.377 8.02895C10.898 7.53756 10.1086 7.52757 9.61742 8.00635C9.12608 8.48523 9.11595 9.27461 9.59483 9.76595L10.6192 10.817C10.852 11.0559 11.1768 11.1928 11.5102 11.1928C11.5207 11.1928 11.5314 11.1926 11.5429 11.1923C11.8887 11.1833 12.2177 11.0289 12.4457 10.7689L14.4478 8.48607C14.9002 7.97021 14.8486 7.18248 14.3328 6.73009ZM13.9198 8.02295L11.9177 10.3058C11.8184 10.419 11.675 10.4862 11.5255 10.4902L11.5102 10.4904C11.365 10.4904 11.2235 10.4307 11.1221 10.3268L10.0978 9.27573C9.8892 9.0617 9.89365 8.71787 10.1076 8.50932C10.2128 8.40676 10.3493 8.35571 10.4858 8.35571C10.6269 8.35571 10.7679 8.41037 10.874 8.51912L11.2242 8.87837C11.2925 8.9485 11.3865 8.9874 11.4849 8.98431C11.5827 8.98173 11.6751 8.93846 11.7396 8.86482L13.1049 7.3082C13.3019 7.08348 13.645 7.06112 13.8696 7.25809C14.0944 7.45515 14.1169 7.79823 13.9198 8.02295Z" fill="white"/>
<path d="M7.175 15V13.25H8.07C8.3 13.25 8.47167 13.2925 8.585 13.3775C8.69833 13.4608 8.755 13.5708 8.755 13.7075C8.755 13.7975 8.73083 13.8767 8.6825 13.945C8.63583 14.0117 8.56917 14.065 8.4825 14.105C8.3975 14.1433 8.29583 14.1625 8.1775 14.1625L8.2275 14.0425C8.35083 14.0425 8.45833 14.0617 8.55 14.1C8.64167 14.1367 8.7125 14.1908 8.7625 14.2625C8.81417 14.3325 8.84 14.4183 8.84 14.52C8.84 14.6717 8.77833 14.79 8.655 14.875C8.53333 14.9583 8.355 15 8.12 15H7.175ZM7.665 14.6425H8.08C8.165 14.6425 8.22917 14.6283 8.2725 14.6C8.3175 14.57 8.34 14.525 8.34 14.465C8.34 14.405 8.3175 14.3608 8.2725 14.3325C8.22917 14.3025 8.165 14.2875 8.08 14.2875H7.63V13.945H8.005C8.08833 13.945 8.15083 13.9308 8.1925 13.9025C8.23417 13.8742 8.255 13.8317 8.255 13.775C8.255 13.7183 8.23417 13.6767 8.1925 13.65C8.15083 13.6217 8.08833 13.6075 8.005 13.6075H7.665V14.6425ZM9.34639 15V13.25H9.84139V15H9.34639ZM10.4436 15V13.25H10.9386V14.6075H11.7736V15H10.4436ZM12.2194 15V13.25H12.7144V14.6075H13.5494V15H12.2194ZM14.4503 13.9275H15.2628V14.2975H14.4503V13.9275ZM14.4853 14.6175H15.4003V15H13.9953V13.25H15.3678V13.6325H14.4853V14.6175ZM15.925 15V13.25H16.7525C16.9458 13.25 17.1158 13.2858 17.2625 13.3575C17.4092 13.4292 17.5233 13.53 17.605 13.66C17.6883 13.79 17.73 13.945 17.73 14.125C17.73 14.3033 17.6883 14.4583 17.605 14.59C17.5233 14.72 17.4092 14.8208 17.2625 14.8925C17.1158 14.9642 16.9458 15 16.7525 15H15.925ZM16.42 14.605H16.7325C16.8325 14.605 16.9192 14.5867 16.9925 14.55C17.0675 14.5117 17.1258 14.4567 17.1675 14.385C17.2092 14.3117 17.23 14.225 17.23 14.125C17.23 14.0233 17.2092 13.9367 17.1675 13.865C17.1258 13.7933 17.0675 13.7392 16.9925 13.7025C16.9192 13.6642 16.8325 13.645 16.7325 13.645H16.42V14.605Z" fill="white"/>
</svg>
