<svg width="11" height="16" viewBox="0 0 11 16" fill="none" xmlns="http://www.w3.org/2000/svg">
<path d="M6.12508 7.895L10.3301 4.624C10.3934 4.57483 10.4447 4.51183 10.48 4.43982C10.5152 4.36781 10.5335 4.28869 10.5335 4.2085C10.5335 4.12832 10.5152 4.0492 10.48 3.97718C10.4447 3.90517 10.3934 3.84217 10.3301 3.793L5.59009 0.106001C5.58409 0.106001 5.57509 0.106001 5.56809 0.106001C5.48185 0.0397655 5.3768 0.00264528 5.26809 0C5.19888 0 5.13035 0.013633 5.06641 0.0401173C5.00247 0.0666015 4.94437 0.10542 4.89544 0.154356C4.8465 0.203292 4.80769 0.261388 4.78121 0.325327C4.75473 0.389266 4.7411 0.457794 4.7411 0.527V6.827L0.851096 3.802C0.740899 3.71634 0.601179 3.67796 0.462684 3.6953C0.324188 3.71265 0.198251 3.7843 0.112586 3.8945C0.026921 4.0047 -0.0114507 4.14441 0.00589646 4.28291C0.0232436 4.4214 0.0948872 4.54734 0.205085 4.633L4.41109 7.904L0.203086 11.171C0.148522 11.2135 0.102855 11.2663 0.0687016 11.3264C0.0345482 11.3866 0.0125779 11.4528 0.00403489 11.5214C-0.0045081 11.5901 0.000544207 11.6597 0.0189122 11.7264C0.0372802 11.793 0.0686079 11.8554 0.111091 11.91C0.153573 11.9646 0.206387 12.0102 0.266517 12.0444C0.326646 12.0785 0.392917 12.1005 0.461539 12.1091C0.530162 12.1176 0.599797 12.1125 0.666465 12.0942C0.733133 12.0758 0.795525 12.0445 0.850089 12.002L4.74009 8.977V15.277C4.74009 15.4168 4.79561 15.5508 4.89445 15.6496C4.99328 15.7485 5.12733 15.804 5.2671 15.804C5.38038 15.8016 5.48971 15.7619 5.57809 15.691C5.57809 15.691 5.58809 15.691 5.59109 15.691L10.3311 12.004C10.3944 11.9548 10.4457 11.8918 10.4809 11.8198C10.5162 11.7478 10.5345 11.6687 10.5345 11.5885C10.5345 11.5083 10.5162 11.4292 10.4809 11.3572C10.4457 11.2852 10.3944 11.2222 10.3311 11.173L6.12508 7.895ZM5.79409 6.818V1.598L9.14909 4.208L5.79409 6.818ZM5.79409 14.191V8.971L9.14909 11.581L5.79409 14.191Z" fill="#232323"/>
</svg>
