<svg width="15" height="11" viewBox="0 0 15 11" fill="none" xmlns="http://www.w3.org/2000/svg">
<path d="M3.55966 8.93675C3.58641 9.01701 3.58641 9.07051 3.53291 9.15076C3.50616 9.20426 3.45266 9.25777 3.3724 9.25777C3.29215 9.25777 3.23865 9.25777 3.18514 9.20426L2.75712 8.88325L2.81063 9.39152C2.81063 9.47178 2.81063 9.52528 2.75712 9.57878C2.70362 9.63228 2.65012 9.65904 2.56987 9.65904C2.48961 9.65904 2.43611 9.63228 2.38261 9.57878C2.32911 9.52528 2.32911 9.44503 2.32911 9.39152L2.38261 8.88325L1.95459 9.20426C1.84758 9.28452 1.71383 9.28452 1.63357 9.17751L1.60682 9.15076C1.55332 9.09726 1.55332 9.01701 1.58007 8.93675C1.60682 8.88325 1.66033 8.82975 1.71383 8.803L2.1686 8.58899L1.71383 8.37498C1.66033 8.34823 1.60682 8.29472 1.58007 8.21447C1.55332 8.16097 1.58007 8.08071 1.60682 8.02721C1.63357 7.97371 1.71383 7.92021 1.76733 7.89346C1.84758 7.89346 1.90109 7.89346 1.95459 7.94696L2.38261 8.26797L2.32911 7.7597C2.32911 7.67945 2.35586 7.62594 2.38261 7.57244C2.43611 7.51894 2.48961 7.49219 2.56987 7.49219C2.70362 7.49219 2.81063 7.59919 2.81063 7.73295V7.78645L2.75712 8.29472L3.18514 8.00046C3.23865 7.94696 3.3189 7.94696 3.3724 7.94696C3.45266 7.94696 3.50616 8.00046 3.53291 8.08071C3.58641 8.13422 3.58641 8.21447 3.55966 8.29472C3.53291 8.34823 3.47941 8.40173 3.42591 8.42848L2.94438 8.58899L3.39915 8.803C3.47941 8.82975 3.53291 8.88325 3.55966 8.93675Z" fill="black"/>
<path d="M6.05185 8.93675C6.0786 9.01701 6.0786 9.07051 6.0251 9.15076C5.99835 9.20426 5.94484 9.25777 5.86459 9.25777C5.78434 9.25777 5.73083 9.25777 5.67733 9.20426L5.24931 8.88325L5.30281 9.39152C5.30281 9.47178 5.30281 9.52528 5.24931 9.57878C5.19581 9.63228 5.14231 9.65904 5.06205 9.65904C4.9818 9.65904 4.9283 9.63228 4.8748 9.57878C4.82129 9.52528 4.82129 9.44503 4.82129 9.39152L4.8748 8.88325L4.44678 9.20426C4.39327 9.25777 4.31302 9.25777 4.25952 9.25777C4.17926 9.23102 4.12576 9.20426 4.09901 9.15076C4.04551 9.09726 4.04551 9.01701 4.07226 8.93675C4.09901 8.88325 4.15251 8.82975 4.20602 8.803L4.66079 8.58899L4.20602 8.37498C4.15251 8.34823 4.09901 8.29472 4.07226 8.21447C4.04551 8.16097 4.07226 8.08071 4.09901 8.02721C4.12576 7.97371 4.20602 7.92021 4.25952 7.89346C4.33977 7.89346 4.39327 7.89346 4.44678 7.94696L4.8748 8.26797L4.82129 7.7597C4.82129 7.67945 4.84804 7.62594 4.8748 7.57244C4.9283 7.51894 4.9818 7.49219 5.06205 7.49219C5.19581 7.49219 5.30281 7.59919 5.30281 7.73295V7.78645L5.24931 8.29472L5.67733 8.00046C5.73083 7.94696 5.81109 7.94696 5.86459 7.94696C5.94484 7.94696 5.99835 8.00046 6.0251 8.08071C6.0786 8.13422 6.0786 8.21447 6.05185 8.29472C6.0251 8.34823 5.97159 8.40173 5.91809 8.42848L5.46332 8.58899L5.91809 8.803C5.99835 8.82975 6.05185 8.88325 6.05185 8.93675Z" fill="black"/>
<path d="M8.4581 8.93675C8.48485 9.01701 8.48485 9.07051 8.43135 9.15076C8.4046 9.20426 8.35109 9.25777 8.27084 9.25777C8.19059 9.25777 8.13708 9.25777 8.08358 9.20426L7.65556 8.88325L7.70906 9.39152C7.70906 9.47178 7.70906 9.52528 7.65556 9.57878C7.60206 9.63228 7.54856 9.65904 7.4683 9.65904C7.38805 9.65904 7.33455 9.63228 7.28105 9.57878C7.22754 9.52528 7.22754 9.44503 7.22754 9.39152L7.28105 8.88325L6.85303 9.20426C6.74602 9.28452 6.61227 9.28452 6.53201 9.17751L6.50526 9.15076C6.45176 9.09726 6.45176 9.01701 6.47851 8.93675C6.50526 8.88325 6.55876 8.82975 6.61227 8.803L7.06704 8.58899L6.61227 8.37498C6.55876 8.34823 6.50526 8.29472 6.47851 8.21447C6.45176 8.16097 6.47851 8.08071 6.50526 8.02721C6.53201 7.97371 6.61227 7.92021 6.66577 7.89346C6.74602 7.89346 6.79952 7.89346 6.85303 7.94696L7.28105 8.26797L7.22754 7.7597C7.22754 7.67945 7.25429 7.62594 7.28105 7.57244C7.33455 7.51894 7.38805 7.49219 7.4683 7.49219C7.60206 7.49219 7.70906 7.59919 7.70906 7.73295V7.78645L7.65556 8.29472L8.08358 8.00046C8.13708 7.94696 8.21734 7.94696 8.27084 7.94696C8.35109 7.94696 8.4046 8.00046 8.43135 8.08071C8.48485 8.13422 8.48485 8.21447 8.4581 8.29472C8.43135 8.34823 8.37784 8.40173 8.32434 8.42848L7.86957 8.58899L8.32434 8.803C8.4046 8.82975 8.4581 8.88325 8.4581 8.93675Z" fill="black"/>
<path d="M10.8643 8.93675C10.8911 9.01701 10.8911 9.07051 10.8376 9.15076C10.8108 9.20426 10.7573 9.25777 10.6771 9.25777C10.5968 9.25777 10.5433 9.25777 10.4898 9.20426L10.0618 8.88325L10.1153 9.39152C10.1153 9.47178 10.1153 9.52528 10.0618 9.57878C10.0083 9.63228 9.95481 9.65904 9.87455 9.65904C9.7943 9.65904 9.7408 9.63228 9.6873 9.57878C9.63379 9.52528 9.63379 9.44503 9.63379 9.39152L9.6873 8.88325L9.25928 9.20426C9.15227 9.28452 9.01852 9.28452 8.93826 9.17751L8.91151 9.15076C8.85801 9.09726 8.85801 9.01701 8.88476 8.93675C8.91151 8.88325 8.96501 8.82975 9.01852 8.803L9.47329 8.58899L9.01852 8.37498C8.96501 8.34823 8.91151 8.29472 8.88476 8.21447C8.85801 8.16097 8.88476 8.08071 8.91151 8.02721C8.93826 7.97371 9.01852 7.92021 9.07202 7.89346C9.15227 7.89346 9.20577 7.89346 9.25928 7.94696L9.6873 8.26797L9.63379 7.7597C9.63379 7.67945 9.66054 7.62594 9.6873 7.57244C9.7408 7.51894 9.7943 7.49219 9.87455 7.49219C10.0083 7.49219 10.1153 7.59919 10.1153 7.73295V7.78645L10.0618 8.29472L10.4898 8.00046C10.5433 7.94696 10.6236 7.94696 10.6771 7.94696C10.7573 7.94696 10.8108 8.00046 10.8376 8.08071C10.8911 8.13422 10.8911 8.21447 10.8643 8.29472C10.8376 8.34823 10.7841 8.40173 10.7306 8.42848L10.2758 8.58899L10.7306 8.803C10.8108 8.82975 10.8643 8.88325 10.8643 8.93675Z" fill="black"/>
<path d="M13.1148 9.66002H11.5097C11.3492 9.66002 11.2422 9.55302 11.2422 9.39251C11.2422 9.232 11.3492 9.125 11.5097 9.125H13.1148C13.2753 9.125 13.3823 9.232 13.3823 9.39251C13.3823 9.55302 13.2753 9.66002 13.1148 9.66002Z" fill="black"/>
<path d="M9.73929 5.14523C9.71254 5.25223 9.60553 5.33249 9.49853 5.33249H9.41827L8.61574 5.06498C8.53548 5.03822 8.48198 4.98472 8.42848 4.90447C8.40173 4.82421 8.37498 4.74396 8.40173 4.66371L8.64249 3.83442C8.66924 3.70066 8.82975 3.62041 8.9635 3.64716C9.09726 3.70066 9.17751 3.83442 9.12401 3.96818L9.04376 4.31594C9.49853 3.91467 9.79279 3.32615 9.79279 2.73762C9.81954 1.88158 9.33802 1.1058 8.56224 0.758031C8.32148 0.651027 8.05396 0.597524 7.8132 0.597524H7.7597C7.59919 0.597524 7.49219 0.490519 7.49219 0.330012C7.49219 0.169505 7.59919 0.0625 7.7597 0.0625H7.8132C7.97371 0.0625 8.13422 0.0892512 8.29472 0.116002C8.45523 0.142754 8.61574 0.196256 8.77625 0.27651C10.1138 0.891787 10.7023 2.49686 10.0871 3.83457C9.92655 4.20909 9.65904 4.5301 9.36477 4.77087L9.60553 4.85112C9.68579 4.87787 9.76604 5.01163 9.73929 5.14538V5.14523Z" fill="black"/>
<path d="M7.49517 5.11476C7.49517 5.24852 7.38817 5.38227 7.22766 5.38227H7.17416C7.01365 5.38227 6.85314 5.35552 6.69264 5.32877C6.53213 5.30202 6.37162 5.24852 6.21112 5.16826C4.87355 4.55298 4.28503 2.94791 4.90031 1.6102C5.08756 1.23568 5.35508 0.887915 5.67609 0.620403L5.38183 0.513399C5.24807 0.459896 5.16782 0.32614 5.22132 0.192384C5.24807 0.058628 5.40858 -0.0216256 5.54234 0.00512558L6.34487 0.272638C6.42513 0.299389 6.47863 0.352891 6.53213 0.433145C6.55888 0.513399 6.58563 0.593652 6.55888 0.673906L6.31812 1.50319C6.29137 1.6102 6.18436 1.69045 6.07736 1.69045H5.99711C5.86335 1.63695 5.7831 1.50319 5.8366 1.36944L5.8901 1.15543C5.43533 1.5567 5.16782 2.11847 5.16782 2.73375C5.14107 3.58979 5.62259 4.36557 6.39837 4.71334C6.63913 4.82034 6.90665 4.87385 7.14741 4.87385H7.22766C7.38817 4.84709 7.49517 4.98085 7.49517 5.11461V5.11476Z" fill="black"/>
<path d="M12.5731 11.0027H2.40761C1.07005 11.0027 0 9.93267 0 8.59511C0 7.25755 1.07005 6.1875 2.40761 6.1875H12.5731C13.9106 6.1875 14.9807 7.25755 14.9807 8.59511C14.9807 9.93267 13.9106 11.0027 12.5731 11.0027ZM2.40761 6.72252C1.36431 6.72252 0.535024 7.55181 0.535024 8.59511C0.535024 9.63841 1.36431 10.4677 2.40761 10.4677H12.5731C13.6164 10.4677 14.4457 9.63841 14.4457 8.59511C14.4457 7.55181 13.6164 6.72252 12.5731 6.72252H2.40761Z" fill="black"/>
</svg>
