<svg width="12" height="13" viewBox="0 0 12 13" fill="none" xmlns="http://www.w3.org/2000/svg">
<path fill-rule="evenodd" clip-rule="evenodd" d="M9.2 9.3L11.829 7C11.9286 6.91269 11.9895 6.78941 11.9984 6.65722C12.0072 6.52504 11.9632 6.39476 11.876 6.295C11.8614 6.27829 11.8457 6.26259 11.829 6.248L9.182 3.932C9.08631 3.84828 8.96232 3.80417 8.83525 3.80863C8.70819 3.81309 8.58759 3.86578 8.498 3.956C8.41373 4.04037 8.36639 4.15475 8.36639 4.274C8.36639 4.39325 8.41373 4.50762 8.498 4.592L8.515 4.608L10.2 6.119H3.5C3.36739 6.119 3.24021 6.17168 3.14645 6.26545C3.05268 6.35921 3 6.48639 3 6.619C3 6.75161 3.05268 6.87879 3.14645 6.97255C3.24021 7.06632 3.36739 7.119 3.5 7.119H10.2L8.537 8.564C8.48892 8.60561 8.4495 8.6563 8.42101 8.71315C8.39252 8.77001 8.37551 8.83192 8.37096 8.89535C8.36641 8.95878 8.37441 9.02248 8.39449 9.08282C8.41457 9.14316 8.44635 9.19895 8.488 9.247L8.495 9.255C8.58312 9.35214 8.70588 9.41077 8.83681 9.41826C8.96775 9.42574 9.09639 9.38147 9.195 9.295L9.2 9.3ZM7.5 3.125C7.36739 3.125 7.24021 3.07232 7.14645 2.97855C7.05268 2.88479 7 2.75761 7 2.625V1.625H1.5C1.36739 1.625 1.24021 1.67768 1.14645 1.77145C1.05268 1.86521 1 1.99239 1 2.125V11.125C1 11.2576 1.05268 11.3848 1.14645 11.4786C1.24021 11.5723 1.36739 11.625 1.5 11.625H7V10.625C7 10.4924 7.05268 10.3652 7.14645 10.2714C7.24021 10.1777 7.36739 10.125 7.5 10.125C7.63261 10.125 7.75979 10.1777 7.85355 10.2714C7.94732 10.3652 8 10.4924 8 10.625V11.625C7.98122 11.884 7.86983 12.1276 7.68621 12.3112C7.50259 12.4948 7.259 12.6062 7 12.625H1C0.740635 12.6072 0.496465 12.4962 0.312637 12.3124C0.128809 12.1285 0.0177553 11.8844 0 11.625V1.625C0.0177553 1.36564 0.128809 1.12147 0.312637 0.937641C0.496465 0.753813 0.740635 0.642755 1 0.625H7C7.25879 0.644385 7.50203 0.755966 7.68553 0.939468C7.86903 1.12297 7.98062 1.36621 8 1.625V2.625C8 2.75761 7.94732 2.88479 7.85355 2.97855C7.75979 3.07232 7.63261 3.125 7.5 3.125Z" fill="#232323"/>
</svg>
