<svg width="18" height="4" viewBox="0 0 18 4" fill="none" xmlns="http://www.w3.org/2000/svg">
<path d="M10 2C10 2.19778 9.94135 2.39112 9.83147 2.55557C9.72159 2.72002 9.56541 2.84819 9.38268 2.92388C9.19996 2.99957 8.99889 3.01937 8.80491 2.98079C8.61093 2.9422 8.43275 2.84696 8.29289 2.70711C8.15304 2.56725 8.0578 2.38907 8.01922 2.19509C7.98063 2.00111 8.00043 1.80004 8.07612 1.61732C8.15181 1.43459 8.27998 1.27841 8.44443 1.16853C8.60888 1.05865 8.80222 1 9 1C9.26522 1 9.51957 1.10536 9.70711 1.29289C9.89464 1.48043 10 1.73478 10 2Z" stroke="#A72116" stroke-width="2" stroke-linecap="round" stroke-linejoin="round"/>
<path d="M17 2C17 2.19778 16.9414 2.39112 16.8315 2.55557C16.7216 2.72002 16.5654 2.84819 16.3827 2.92388C16.2 2.99957 15.9989 3.01937 15.8049 2.98079C15.6109 2.9422 15.4327 2.84696 15.2929 2.70711C15.153 2.56725 15.0578 2.38907 15.0192 2.19509C14.9806 2.00111 15.0004 1.80004 15.0761 1.61732C15.1518 1.43459 15.28 1.27841 15.4444 1.16853C15.6089 1.05865 15.8022 1 16 1C16.2652 1 16.5196 1.10536 16.7071 1.29289C16.8946 1.48043 17 1.73478 17 2Z" stroke="#A72116" stroke-width="2" stroke-linecap="round" stroke-linejoin="round"/>
<path d="M3 2C3 2.19778 2.94135 2.39112 2.83147 2.55557C2.72159 2.72002 2.56541 2.84819 2.38268 2.92388C2.19996 2.99957 1.99889 3.01937 1.80491 2.98079C1.61093 2.9422 1.43275 2.84696 1.29289 2.70711C1.15304 2.56725 1.0578 2.38907 1.01922 2.19509C0.98063 2.00111 1.00043 1.80004 1.07612 1.61732C1.15181 1.43459 1.27998 1.27841 1.44443 1.16853C1.60888 1.05865 1.80222 1 2 1C2.26522 1 2.51957 1.10536 2.70711 1.29289C2.89464 1.48043 3 1.73478 3 2Z" stroke="#A72116" stroke-width="2" stroke-linecap="round" stroke-linejoin="round"/>
</svg>
