<svg width="15" height="15" viewBox="0 0 15 15" fill="none" xmlns="http://www.w3.org/2000/svg">
<path d="M14.4974 3.681C14.4971 3.40596 14.3878 3.14224 14.1934 2.94767C13.999 2.75309 13.7354 2.64353 13.4604 2.643H10.9674V1.825C10.9669 1.47375 10.8271 1.13704 10.5787 0.888668C10.3304 0.640297 9.99364 0.500529 9.64239 0.5H8.1874C7.83615 0.500529 7.49943 0.640297 7.25106 0.888668C7.00269 1.13704 6.86292 1.47375 6.86239 1.825V2.643H4.37039C4.09518 2.64326 3.83131 2.75271 3.63671 2.94732C3.4421 3.14192 3.33266 3.40579 3.33239 3.681V4.948C3.32954 5.24387 3.43158 5.53119 3.62039 5.759V8.559C3.06282 8.5746 2.52324 8.75975 2.07356 9.08979C1.62388 9.41982 1.28546 9.87906 1.1034 10.4063C0.921344 10.9336 0.904288 11.5038 1.05451 12.0409C1.20474 12.5781 1.51511 13.0568 1.94426 13.4131C2.37341 13.7694 2.90097 13.9865 3.45661 14.0354C4.01226 14.0843 4.56961 13.9627 5.05439 13.6867C5.53917 13.4108 5.92835 12.9938 6.17008 12.4911C6.4118 11.9884 6.49458 11.4239 6.40739 10.873H13.1674C13.4424 10.8727 13.7061 10.7634 13.9007 10.569C14.0953 10.3746 14.2049 10.111 14.2054 9.836V5.759C14.3943 5.53123 14.4963 5.24388 14.4934 4.948L14.4974 3.681ZM7.21539 1.825C7.21566 1.56623 7.31857 1.31813 7.50155 1.13516C7.68453 0.952178 7.93262 0.849264 8.19139 0.848999H9.64239C9.90116 0.849264 10.1493 0.952178 10.3322 1.13516C10.5152 1.31813 10.6181 1.56623 10.6184 1.825V2.643H10.2764V1.825C10.2764 1.65659 10.2095 1.49507 10.0904 1.37599C9.97132 1.2569 9.8098 1.19 9.64139 1.19H8.1874C8.01898 1.19 7.85747 1.2569 7.73838 1.37599C7.6193 1.49507 7.55239 1.65659 7.55239 1.825V2.643H7.21039L7.21539 1.825ZM9.92939 2.643H7.90639V1.825C7.90639 1.74915 7.93652 1.6764 7.99016 1.62277C8.0438 1.56913 8.11654 1.539 8.19239 1.539H9.64339C9.71924 1.539 9.79199 1.56913 9.84562 1.62277C9.89926 1.6764 9.92939 1.74915 9.92939 1.825V2.643ZM3.6874 3.681C3.68766 3.49835 3.76033 3.32325 3.88949 3.1941C4.01865 3.06494 4.19374 2.99226 4.37639 2.992H13.4614C13.6441 2.992 13.8194 3.06459 13.9486 3.1938C14.0778 3.32302 14.1504 3.49827 14.1504 3.681V4.948C14.1529 5.122 14.105 5.29302 14.0123 5.44033C13.9197 5.58764 13.7863 5.70493 13.6284 5.778C12.6882 6.22514 11.6683 6.48044 10.6284 6.529C10.5782 6.34378 10.4684 6.1802 10.3161 6.06347C10.1638 5.94674 9.97731 5.88333 9.78539 5.883H8.05539C7.86344 5.88316 7.67688 5.94651 7.52452 6.06327C7.37215 6.18002 7.26246 6.34369 7.21239 6.529C6.17244 6.48039 5.15259 6.22509 4.21239 5.778C4.05445 5.70493 3.92109 5.58764 3.82844 5.44033C3.73579 5.29302 3.68784 5.122 3.69039 4.948V3.681H3.6874ZM10.3084 6.757C10.3081 6.89616 10.2527 7.02954 10.1543 7.12794C10.0559 7.22634 9.92255 7.28174 9.7834 7.282H8.05339C7.98445 7.282 7.91618 7.26842 7.85248 7.24203C7.78878 7.21565 7.73091 7.17698 7.68216 7.12823C7.63341 7.07948 7.59474 7.0216 7.56835 6.95791C7.54197 6.89421 7.52839 6.82594 7.52839 6.757C7.52839 6.68806 7.54197 6.61979 7.56835 6.55609C7.59474 6.4924 7.63341 6.43452 7.68216 6.38577C7.73091 6.33702 7.78878 6.29835 7.85248 6.27197C7.91618 6.24558 7.98445 6.232 8.05339 6.232H9.7834C9.92255 6.23226 10.0559 6.28766 10.1543 6.38606C10.2527 6.48446 10.3081 6.61784 10.3084 6.757ZM3.72239 13.651C3.25266 13.651 2.79348 13.5117 2.40291 13.2507C2.01234 12.9898 1.70794 12.6188 1.52818 12.1849C1.34842 11.7509 1.30139 11.2734 1.39303 10.8127C1.48467 10.352 1.71087 9.92877 2.04302 9.59662C2.37517 9.26447 2.79835 9.03828 3.25905 8.94664C3.71976 8.855 4.19729 8.90203 4.63127 9.08179C5.06524 9.26155 5.43616 9.56595 5.69713 9.95652C5.9581 10.3471 6.09739 10.8063 6.09739 11.276C6.0966 11.9058 5.84598 12.5096 5.40054 12.9549C4.95509 13.4001 4.35221 13.6505 3.72239 13.651ZM13.1724 10.522H6.33739C6.18536 9.99626 5.87872 9.52841 5.45732 9.17923C5.03591 8.83004 4.51922 8.61568 3.97439 8.564V6.045C4.00139 6.061 4.02839 6.078 4.05739 6.092C5.03855 6.56019 6.10343 6.82743 7.18939 6.878C7.21877 7.08635 7.32232 7.27712 7.48104 7.41526C7.63975 7.55341 7.84298 7.62965 8.05339 7.63H9.7834C9.99381 7.62965 10.197 7.55341 10.3558 7.41526C10.5145 7.27712 10.618 7.08635 10.6474 6.878C11.7334 6.82757 12.7983 6.56032 13.7794 6.092C13.8084 6.078 13.8344 6.061 13.8624 6.045V9.833C13.8624 10.0157 13.7898 10.191 13.6606 10.3202C13.5314 10.4494 13.3551 10.522 13.1724 10.522ZM4.33739 11.717C4.3371 11.8497 4.29403 11.9787 4.21459 12.085C4.13515 12.1913 4.02357 12.2691 3.89639 12.307V12.383C3.89639 12.4293 3.87801 12.4737 3.84529 12.5064C3.81256 12.5391 3.76818 12.5575 3.7219 12.5575C3.67561 12.5575 3.63123 12.5391 3.59851 12.5064C3.56578 12.4737 3.5474 12.4293 3.5474 12.383V12.307C3.40726 12.2659 3.28635 12.1762 3.20639 12.054C3.19385 12.0348 3.18521 12.0134 3.18096 11.9909C3.17671 11.9683 3.17694 11.9452 3.18163 11.9228C3.18632 11.9004 3.19538 11.8791 3.20829 11.8602C3.22121 11.8412 3.23772 11.825 3.25689 11.8125C3.27606 11.8 3.29752 11.7913 3.32003 11.7871C3.34255 11.7828 3.36568 11.783 3.3881 11.7877C3.41053 11.7924 3.43181 11.8015 3.45073 11.8144C3.46966 11.8273 3.48585 11.8438 3.49839 11.863C3.52369 11.9017 3.55863 11.9332 3.59977 11.9544C3.64091 11.9756 3.68685 11.9857 3.73308 11.9838C3.77931 11.9818 3.82424 11.9679 3.86347 11.9434C3.90271 11.9189 3.9349 11.8846 3.95688 11.8439C3.97886 11.8031 3.98988 11.7574 3.98887 11.7112C3.98786 11.6649 3.97484 11.6197 3.9511 11.58C3.92735 11.5403 3.8937 11.5074 3.85343 11.4846C3.81316 11.4618 3.76766 11.4499 3.72139 11.45C3.57283 11.4509 3.42894 11.3981 3.31633 11.3012C3.20372 11.2043 3.13 11.0699 3.10878 10.9228C3.08757 10.7758 3.1203 10.626 3.20092 10.5013C3.28155 10.3765 3.40462 10.2851 3.5474 10.244V10.167C3.5474 10.1207 3.56578 10.0763 3.59851 10.0436C3.63123 10.0109 3.67561 9.9925 3.7219 9.9925C3.76818 9.9925 3.81256 10.0109 3.84529 10.0436C3.87801 10.0763 3.89639 10.1207 3.89639 10.167V10.244C4.03649 10.2852 4.15736 10.3749 4.23739 10.497C4.26272 10.5357 4.27163 10.5829 4.26216 10.6282C4.25268 10.6735 4.22561 10.7132 4.18689 10.7385C4.14817 10.7638 4.10097 10.7727 4.05568 10.7633C4.01039 10.7538 3.97072 10.7267 3.94539 10.688C3.92009 10.6493 3.88516 10.6178 3.84402 10.5966C3.80288 10.5754 3.75694 10.5653 3.71071 10.5672C3.66448 10.5692 3.61954 10.5831 3.58031 10.6076C3.54108 10.6321 3.50889 10.6664 3.48691 10.7071C3.46493 10.7479 3.4539 10.7936 3.45491 10.8398C3.45592 10.8861 3.46894 10.9313 3.49269 10.971C3.51643 11.0107 3.55009 11.0436 3.59036 11.0664C3.63063 11.0892 3.67612 11.1011 3.72239 11.101C3.88559 11.1013 4.04201 11.1663 4.15732 11.2818C4.27263 11.3973 4.33739 11.5538 4.33739 11.717ZM3.72239 9.291C3.3298 9.291 2.94602 9.40742 2.61959 9.62553C2.29315 9.84365 2.03873 10.1537 1.88849 10.5164C1.73825 10.8791 1.69894 11.2782 1.77553 11.6633C1.85212 12.0483 2.04118 12.402 2.31879 12.6796C2.5964 12.9572 2.95009 13.1463 3.33514 13.2229C3.72019 13.2994 4.11931 13.2601 4.48202 13.1099C4.84473 12.9597 5.15474 12.7052 5.37286 12.3788C5.59097 12.0524 5.70739 11.6686 5.70739 11.276C5.70686 10.7495 5.49742 10.2448 5.12506 9.87262C4.7527 9.50045 4.24886 9.29127 3.72239 9.291ZM3.72239 12.912C3.39882 12.912 3.08252 12.816 2.81348 12.6363C2.54444 12.4565 2.33475 12.201 2.21092 11.9021C2.0871 11.6031 2.05471 11.2742 2.11783 10.9568C2.18096 10.6395 2.33677 10.348 2.56557 10.1192C2.79437 9.89038 3.08587 9.73456 3.40322 9.67144C3.72058 9.60831 4.04952 9.64071 4.34846 9.76453C4.6474 9.88836 4.90291 10.098 5.08267 10.3671C5.26244 10.6361 5.35839 10.9524 5.35839 11.276C5.35786 11.7099 5.18519 12.1259 4.87828 12.4326C4.57137 12.7393 4.1563 12.9117 3.72239 12.912Z" fill="black"/>
</svg>
