<svg width="19" height="19" viewBox="0 0 19 19" fill="none" xmlns="http://www.w3.org/2000/svg">
<path d="M9.5 19C14.7467 19 19 14.7467 19 9.5C19 4.25329 14.7467 0 9.5 0C4.25329 0 0 4.25329 0 9.5C0 14.7467 4.25329 19 9.5 19Z" fill="#F4F4F4"/>
<path fill-rule="evenodd" clip-rule="evenodd" d="M8.69313 4.61212C8.61535 4.53871 8.51201 4.4985 8.40507 4.50004C8.29813 4.50159 8.196 4.54475 8.12037 4.62038C8.04475 4.69601 8.00159 4.79813 8.00004 4.90507C7.9985 5.01201 8.03871 5.11534 8.11212 5.19312L12.4971 9.57812L8.11212 13.8101C8.03871 13.8879 7.9985 13.9912 8.00004 14.0982C8.00159 14.2051 8.04475 14.3072 8.12037 14.3829C8.196 14.4585 8.29813 14.5017 8.40507 14.5032C8.51201 14.5047 8.61535 14.4645 8.69313 14.3911L13.5831 9.57812L8.69313 4.61212Z" fill="#A72116"/>
</svg>
