<svg width="20" height="20" viewBox="0 0 20 20" fill="none" xmlns="http://www.w3.org/2000/svg">
<path d="M10 20C8.02219 20 6.08879 19.4135 4.4443 18.3147C2.79981 17.2159 1.51809 15.6541 0.761209 13.8268C0.00433284 11.9996 -0.193701 9.98891 0.192152 8.0491C0.578004 6.10929 1.53041 4.32746 2.92894 2.92894C4.32746 1.53041 6.10929 0.578004 8.0491 0.192152C9.98891 -0.193701 11.9996 0.00433284 13.8268 0.761209C15.6541 1.51809 17.2159 2.79981 18.3147 4.4443C19.4135 6.08879 20 8.02219 20 10C19.9971 12.6513 18.9426 15.1931 17.0679 17.0679C15.1931 18.9426 12.6513 19.9971 10 20ZM6.5 8.893C6.31247 8.893 6.12871 8.94573 5.96971 9.04517C5.81071 9.14461 5.68288 9.28676 5.60081 9.45538C5.51874 9.62401 5.48574 9.81231 5.50558 9.99879C5.52542 10.1853 5.59729 10.3624 5.713 10.51L8.14501 13.617C8.23846 13.7362 8.35777 13.8326 8.49393 13.899C8.63009 13.9653 8.77954 13.9999 8.931 14H8.938C9.09139 13.9983 9.24232 13.9614 9.37914 13.892C9.51595 13.8226 9.63498 13.7227 9.72701 13.6L14.295 7.6C14.3773 7.49553 14.4379 7.3757 14.4733 7.24753C14.5087 7.11935 14.5181 6.9854 14.5011 6.85352C14.4841 6.72164 14.441 6.59447 14.3743 6.47946C14.3075 6.36445 14.2185 6.2639 14.1125 6.1837C14.0064 6.10351 13.8854 6.04527 13.7565 6.0124C13.6277 5.97952 13.4936 5.97268 13.3621 5.99226C13.2305 6.01184 13.1042 6.05746 12.9906 6.12644C12.8769 6.19542 12.7781 6.28639 12.7 6.394L8.92 11.364L7.287 9.27701C7.19395 9.15704 7.07461 9.06004 6.93817 8.99347C6.80173 8.92689 6.65182 8.89252 6.5 8.893Z" fill="#078C44"/>
</svg>
