<svg width="18" height="20" viewBox="0 0 18 20" fill="none" xmlns="http://www.w3.org/2000/svg">
<path d="M15.187 19.9961H5.062C3.79549 20.0646 2.55317 19.6302 1.60523 18.7875C0.657288 17.9448 0.0803896 16.762 0 15.4961L0 2.49615C0.0445735 1.79274 0.365157 1.13541 0.891981 0.667209C1.41881 0.199004 2.10923 -0.0421799 2.813 -0.00385405H17.437C17.5778 -0.0115222 17.7159 0.0367024 17.8214 0.130333C17.9268 0.223965 17.991 0.355431 18 0.496146C17.991 0.636861 17.9268 0.768327 17.8214 0.861958C17.7159 0.95559 17.5778 1.00381 17.437 0.996146H2.813C2.39046 0.972083 1.97559 1.11642 1.65923 1.39755C1.34286 1.67868 1.15077 2.0737 1.125 2.49615C1.15077 2.91859 1.34286 3.31361 1.65923 3.59475C1.97559 3.87588 2.39046 4.02021 2.813 3.99615H15.187C15.8908 3.95782 16.5812 4.199 17.108 4.66721C17.6348 5.13541 17.9554 5.79274 18 6.49615V17.4961C17.9554 18.1995 17.6348 18.8569 17.108 19.3251C16.5812 19.7933 15.8908 20.0345 15.187 19.9961ZM1.125 4.49615V15.4961C1.18736 16.4807 1.63599 17.4008 2.37329 18.0563C3.1106 18.7117 4.07691 19.0495 5.062 18.9961H15.187C15.6095 19.0202 16.0244 18.8759 16.3408 18.5947C16.6571 18.3136 16.8492 17.9186 16.875 17.4961V6.49615C16.8492 6.0737 16.6571 5.67868 16.3408 5.39755C16.0244 5.11642 15.6095 4.97208 15.187 4.99615H2.813C2.21318 5.0007 1.62557 4.82664 1.125 4.49615ZM9.562 15.9961H5.062C4.92939 15.9961 4.80221 15.9435 4.70845 15.8497C4.61468 15.7559 4.562 15.6288 4.562 15.4961C4.562 15.3635 4.61468 15.2364 4.70845 15.1426C4.80221 15.0488 4.92939 14.9961 5.062 14.9961H9.562C9.69461 14.9961 9.82178 15.0488 9.91555 15.1426C10.0093 15.2364 10.062 15.3635 10.062 15.4961C10.062 15.6288 10.0093 15.7559 9.91555 15.8497C9.82178 15.9435 9.69461 15.9961 9.562 15.9961ZM12.938 13.9961H5.062C4.92939 13.9961 4.80221 13.9435 4.70845 13.8497C4.61468 13.7559 4.562 13.6288 4.562 13.4961C4.562 13.3635 4.61468 13.2364 4.70845 13.1426C4.80221 13.0488 4.92939 12.9961 5.062 12.9961H12.937C13.0696 12.9961 13.1968 13.0488 13.2906 13.1426C13.3843 13.2364 13.437 13.3635 13.437 13.4961C13.437 13.6288 13.3843 13.7559 13.2906 13.8497C13.1968 13.9435 13.0706 13.9961 12.938 13.9961ZM12.938 11.9961H5.062C4.92121 12.0038 4.78308 11.9556 4.67765 11.862C4.57222 11.7683 4.50802 11.6369 4.499 11.4961V8.49615C4.50802 8.35543 4.57222 8.22396 4.67765 8.13033C4.78308 8.0367 4.92121 7.98848 5.062 7.99615H12.937C13.0777 7.98849 13.2157 8.03674 13.321 8.1304C13.4262 8.22405 13.4902 8.35552 13.499 8.49615V11.4961C13.4902 11.6366 13.4264 11.7679 13.3213 11.8615C13.2163 11.9552 13.0785 12.0035 12.938 11.9961ZM5.625 8.99615V10.9961H12.374V8.99615H5.625ZM17.437 2.99615H2.813C2.67221 3.00381 2.53408 2.95559 2.42865 2.86196C2.32322 2.76833 2.25902 2.63686 2.25 2.49615C2.25902 2.35543 2.32322 2.22396 2.42865 2.13033C2.53408 2.0367 2.67221 1.98848 2.813 1.99615H17.437C17.5778 1.98848 17.7159 2.0367 17.8214 2.13033C17.9268 2.22396 17.991 2.35543 18 2.49615C17.991 2.63686 17.9268 2.76833 17.8214 2.86196C17.7159 2.95559 17.5778 3.00381 17.437 2.99615Z" fill="#A72116"/>
</svg>
