<svg width="36" height="22" viewBox="0 0 36 22" fill="none" xmlns="http://www.w3.org/2000/svg">
<path d="M25 21V18C25 16.4087 24.3679 14.8826 23.2426 13.7574C22.1174 12.6321 20.5913 12 19 12H7C5.4087 12 3.88258 12.6321 2.75736 13.7574C1.63214 14.8826 1 16.4087 1 18V21" stroke="#232323" stroke-linecap="round" stroke-linejoin="round"/>
<path d="M21 7C21 8.18669 20.6481 9.34673 19.9888 10.3334C19.3295 11.3201 18.3925 12.0892 17.2961 12.5433C16.1997 12.9974 14.9933 13.1162 13.8295 12.8847C12.6656 12.6532 11.5965 12.0818 10.7574 11.2426C9.91825 10.4035 9.3468 9.33443 9.11529 8.17054C8.88378 7.00666 9.0026 5.80026 9.45673 4.7039C9.91085 3.60754 10.6799 2.67047 11.6666 2.01118C12.6533 1.35189 13.8133 1 15 1C16.5913 1 18.1174 1.63214 19.2426 2.75736C20.3679 3.88258 21 5.4087 21 7Z" stroke="#232323" stroke-linecap="round" stroke-linejoin="round"/>
<path d="M34.9531 21.0031V18.0031C34.951 16.6746 34.508 15.3843 33.6936 14.3346C32.8792 13.2849 31.7395 12.5353 30.4531 12.2031" stroke="#232323" stroke-linecap="round" stroke-linejoin="round"/>
<path d="M24.9219 1.20312C26.2103 1.53531 27.3517 2.28632 28.1667 3.33806C28.9817 4.3898 29.4239 5.68259 29.4239 7.01313C29.4239 8.34366 28.9817 9.63645 28.1667 10.6882C27.3517 11.7399 26.2103 12.4909 24.9219 12.8231" stroke="#232323" stroke-linecap="round" stroke-linejoin="round"/>
</svg>
