<svg width="32" height="32" viewBox="0 0 32 32" fill="none" xmlns="http://www.w3.org/2000/svg">
<path d="M22.188 20.25H31.75V1.68801C31.7507 1.46624 31.7075 1.24652 31.623 1.04149C31.5384 0.83646 31.4142 0.650158 31.2574 0.493295C31.1007 0.336431 30.9144 0.212098 30.7094 0.127443C30.5045 0.0427877 30.2848 -0.00052062 30.063 7.45003e-06H1.93801C1.71615 -0.000652645 1.49635 0.0425583 1.29126 0.127154C1.08616 0.211751 0.899816 0.336062 0.742939 0.492939C0.586062 0.649816 0.46175 0.836162 0.377154 1.04126C0.292558 1.24635 0.249347 1.46615 0.250007 1.68801V29.813C0.249479 30.0348 0.292788 30.2545 0.377443 30.4594C0.462098 30.6644 0.586431 30.8507 0.743295 31.0074C0.900158 31.1642 1.08646 31.2884 1.29149 31.373C1.49652 31.4575 1.71624 31.5007 1.93801 31.5H20.5V21.938C20.5011 21.4906 20.6792 21.0619 20.9956 20.7456C21.3119 20.4292 21.7406 20.2511 22.188 20.25ZM31.258 24.117L24.367 31.008C24.2094 31.1652 24.0222 31.2896 23.8162 31.374C23.6102 31.4585 23.3896 31.5013 23.167 31.5H22.75V22.5H31.75V22.929C31.7498 23.3745 31.5729 23.8018 31.258 24.117Z" fill="#A72116"/>
<path d="M15.8974 20.346C15.3054 20.346 14.7294 20.254 14.1694 20.07C13.6174 19.886 13.1654 19.638 12.8134 19.326L13.3654 18.378C13.6454 18.642 14.0094 18.858 14.4574 19.026C14.9054 19.194 15.3814 19.278 15.8854 19.278C16.5254 19.278 17.0174 19.142 17.3614 18.87C17.7054 18.598 17.8774 18.234 17.8774 17.778C17.8774 17.466 17.8014 17.194 17.6494 16.962C17.4974 16.73 17.2334 16.554 16.8574 16.434C16.4894 16.306 15.9814 16.242 15.3334 16.242H13.4254L13.8694 11.85H18.6094V12.894H14.3134L14.9374 12.306L14.5894 15.774L13.9654 15.198H15.5854C16.4254 15.198 17.1014 15.306 17.6134 15.522C18.1254 15.738 18.4974 16.038 18.7294 16.422C18.9614 16.798 19.0774 17.234 19.0774 17.73C19.0774 18.21 18.9614 18.65 18.7294 19.05C18.4974 19.442 18.1454 19.758 17.6734 19.998C17.2094 20.23 16.6174 20.346 15.8974 20.346Z" fill="white"/>
</svg>
